<?xml version="1.0" standalone="no"?>
<!DOCTYPE svg PUBLIC "-//W3C//DTD SVG 20010904//EN"
 "http://www.w3.org/TR/2001/REC-SVG-20010904/DTD/svg10.dtd">
<svg version="1.0" xmlns="http://www.w3.org/2000/svg"
 width="2000.000000pt" height="2000.000000pt" viewBox="0 0 2000.000000 2000.000000"
 preserveAspectRatio="xMidYMid meet">
<metadata>
Created by potrace 1.14, written by Peter Selinger 2001-2017
</metadata>
<g transform="translate(0.000000,2000.000000) scale(0.100000,-0.100000)"
fill="#000000" stroke="none">
<path d="M9777 16163 c-1 0 -56 -4 -122 -8 -66 -3 -136 -8 -155 -10 -19 -2
-64 -7 -100 -10 -85 -7 -266 -30 -320 -40 -14 -2 -43 -7 -65 -10 -22 -3 -78
-12 -125 -21 -47 -9 -96 -18 -110 -20 -14 -3 -53 -11 -86 -19 -34 -8 -73 -16
-85 -19 -13 -2 -60 -13 -104 -25 -692 -174 -1347 -465 -1945 -864 -133 -89
-415 -298 -474 -352 -6 -6 -42 -37 -81 -69 -200 -167 -490 -453 -650 -640 -27
-32 -59 -68 -69 -80 -37 -41 -204 -252 -262 -331 -73 -99 -224 -324 -224 -333
0 -4 90 -7 200 -6 l201 0 57 85 c57 83 143 200 198 270 16 20 40 51 54 69 14
18 30 38 35 44 6 6 35 40 65 76 101 119 133 154 320 341 282 283 595 539 895
733 66 43 131 86 145 95 14 10 45 28 70 41 25 14 52 30 60 36 64 49 607 319
685 340 6 1 49 19 97 39 313 129 764 256 1138 320 19 3 42 8 50 10 8 2 40 7
70 10 30 3 62 8 70 10 8 2 41 7 74 9 32 3 77 8 100 11 264 35 888 41 1141 11
17 -2 62 -7 100 -11 70 -6 85 -8 160 -19 22 -4 57 -9 77 -11 53 -7 190 -31
273 -49 39 -8 82 -17 95 -20 139 -29 200 -45 360 -91 255 -74 530 -173 730
-262 62 -28 447 -219 470 -233 8 -5 85 -50 170 -101 157 -93 274 -169 410
-268 103 -75 316 -242 365 -285 22 -20 68 -59 102 -88 61 -53 387 -378 453
-453 33 -37 191 -225 227 -269 44 -55 195 -259 233 -316 24 -36 45 -67 47 -69
4 -5 403 -8 403 -3 0 5 -33 64 -43 77 -4 5 -47 66 -95 135 -317 457 -684 857
-1112 1214 -145 122 -139 116 -200 161 -30 21 -57 42 -60 45 -29 34 -602 410
-624 410 -2 0 -46 24 -97 53 -141 80 -405 207 -579 280 -154 64 -455 176 -520
192 -3 1 -12 4 -20 8 -56 22 -495 136 -583 151 -15 3 -35 7 -45 10 -19 6 -295
53 -357 61 -343 44 -540 57 -863 59 -123 1 -224 0 -225 -1z"/>
<path d="M3834 12235 c-2 -5 -3 -1018 -2 -2250 l3 -2240 317 0 c275 0 317 2
320 15 2 8 3 412 3 898 -1 611 2 882 9 883 35 3 1374 4 1388 1 10 -2 20 -13
24 -24 3 -11 29 -68 56 -126 52 -110 90 -192 138 -297 27 -58 68 -146 135
-290 17 -38 45 -97 60 -130 71 -153 100 -215 132 -285 20 -41 49 -104 66 -140
16 -36 45 -99 64 -140 48 -102 89 -190 130 -280 18 -41 38 -77 43 -80 7 -4
676 -5 702 -1 4 0 -19 56 -51 124 -77 162 -111 235 -188 402 -36 77 -81 174
-100 215 -20 41 -63 136 -98 210 -34 74 -88 188 -119 254 -31 65 -56 120 -56
121 0 1 -27 61 -61 131 -94 199 -159 343 -159 352 0 5 28 15 62 22 274 53 499
221 612 455 63 130 97 262 113 435 9 99 9 741 0 853 -44 545 -354 860 -897
913 -120 12 -2642 11 -2646 -1z m2588 -650 c195 -41 288 -146 314 -355 8 -67
8 -621 0 -670 -40 -237 -128 -329 -351 -366 -46 -8 -1893 -12 -1904 -4 -6 4
-8 1397 -2 1408 0 1 423 2 939 2 768 0 949 -3 1004 -15z"/>
<path d="M8075 12240 c-2 -3 -3 -148 -4 -322 l-1 -318 740 0 740 0 0 -1925 c0
-1059 3 -1926 8 -1926 4 -1 148 -2 320 -3 l312 -1 0 25 c1 14 1 881 2 1928 l2
1902 738 0 738 0 -2 322 -3 323 -1793 0 c-987 0 -1795 -2 -1797 -5z"/>
<path d="M12962 12232 c-226 -46 -419 -220 -493 -443 l-24 -74 -1 -1703 c-2
-1627 -1 -1706 17 -1775 59 -233 235 -410 469 -473 60 -16 158 -17 1345 -18
704 0 1307 3 1340 7 246 26 469 226 535 479 16 64 19 115 19 404 l1 330 -317
0 c-175 0 -320 -3 -323 -7 -3 -4 -5 -131 -4 -283 0 -153 -3 -279 -7 -282 -16
-9 -2422 -5 -2428 4 -3 6 -6 727 -6 1604 l1 1593 1220 3 1220 2 0 -272 c-1
-150 0 -281 3 -290 3 -17 27 -18 322 -18 l319 0 0 328 c-1 348 -6 397 -52 505
-35 82 -66 127 -143 202 -96 96 -208 154 -345 181 -19 4 -613 8 -1319 8 -1025
1 -1297 -2 -1349 -12z"/>
<path d="M4804 6679 c-4 -8 140 -226 221 -334 112 -149 258 -331 330 -411 6
-6 46 -51 90 -100 225 -250 560 -554 860 -781 80 -60 343 -243 350 -243 2 0
30 -18 63 -39 32 -22 74 -48 93 -59 19 -10 79 -45 134 -77 134 -77 397 -211
520 -265 55 -23 123 -53 150 -65 221 -100 677 -247 978 -317 150 -34 143 -33
257 -54 47 -9 94 -18 105 -20 18 -3 176 -27 260 -39 42 -6 98 -12 185 -20 41
-4 86 -8 98 -10 108 -17 574 -23 817 -11 148 7 172 9 289 21 32 3 82 8 110 11
64 6 368 52 387 58 8 3 31 8 52 11 70 10 190 36 347 76 85 22 166 42 180 45
60 13 479 157 620 214 336 136 655 297 945 478 109 68 285 184 310 204 5 4 55
40 110 80 55 40 105 77 111 83 6 5 26 21 44 35 19 14 81 65 139 114 305 256
595 550 847 861 141 174 398 540 390 554 -5 7 -394 7 -399 0 -2 -2 -24 -33
-47 -69 -283 -421 -715 -886 -1147 -1233 -363 -291 -846 -589 -1213 -747 -41
-18 -97 -42 -125 -55 -269 -120 -757 -277 -1045 -334 -30 -6 -66 -14 -80 -16
-43 -10 -123 -24 -164 -30 -21 -3 -41 -7 -45 -9 -3 -2 -31 -7 -61 -10 -30 -4
-66 -9 -80 -11 -14 -2 -47 -7 -75 -10 -27 -3 -66 -8 -85 -10 -34 -4 -52 -6
-235 -22 -178 -15 -894 -6 -925 12 -3 2 -43 6 -90 10 -47 4 -94 9 -105 11 -23
4 -76 12 -125 18 -90 12 -348 61 -475 91 -38 9 -77 18 -86 20 -43 9 -279 79
-404 120 -727 241 -1397 624 -1987 1138 -114 100 -410 392 -497 492 -166 189
-331 399 -441 561 l-60 88 -196 0 c-108 1 -198 -2 -200 -5z"/>
</g>
</svg>
