<?xml version="1.0" standalone="no"?>
<!DOCTYPE svg PUBLIC "-//W3C//DTD SVG 20010904//EN"
 "http://www.w3.org/TR/2001/REC-SVG-20010904/DTD/svg10.dtd">
<svg version="1.0" xmlns="http://www.w3.org/2000/svg"
 width="1000.000000pt" height="1000.000000pt" viewBox="0 0 1000.000000 1000.000000"
 preserveAspectRatio="xMidYMid meet">
<metadata>
Created by potrace 1.14, written by Peter Selinger 2001-2017
</metadata>
<g transform="translate(0.000000,1000.000000) scale(0.100000,-0.100000)"
fill="#000000" stroke="none">
<path d="M0 5000 l0 -5000 5000 0 5000 0 0 5000 0 5000 -5000 0 -5000 0 0
-5000z m5390 1585 c27 -9 68 -38 105 -74 108 -104 5 -95 1095 -101 953 -5 955
-5 1013 -27 170 -64 296 -211 326 -378 6 -34 12 -271 14 -550 5 -563 0 -535
101 -635 71 -69 91 -123 91 -240 -1 -68 -5 -94 -23 -127 -38 -73 -109 -132
-126 -105 -2 4 0 53 6 107 17 151 -4 180 -140 192 -65 5 -70 4 -101 -23 -25
-23 -33 -41 -41 -89 -6 -33 -10 -79 -10 -102 0 -88 -22 -95 -67 -20 -42 68
-57 134 -50 208 7 66 51 160 92 198 59 55 57 37 59 625 1 530 1 542 -20 587
-31 66 -78 114 -142 146 l-57 28 -970 0 c-1066 -1 -998 3 -1056 -60 -38 -41
-132 -85 -198 -92 -74 -7 -140 8 -208 50 -75 45 -68 67 20 67 23 0 69 4 102
10 48 8 66 16 89 41 27 31 28 36 23 101 -12 136 -41 157 -192 140 -54 -6 -103
-8 -107 -6 -38 24 68 122 157 145 44 12 163 3 215 -16z m1386 -794 c49 -10
124 -34 165 -53 82 -39 188 -115 218 -157 l20 -27 -92 -85 c-51 -47 -98 -89
-105 -93 -8 -5 -28 6 -56 32 -93 86 -200 125 -336 124 -245 -1 -424 -155 -462
-394 -37 -241 92 -459 315 -530 86 -28 219 -27 309 1 63 20 160 82 202 129
l18 21 104 -96 103 -97 -20 -27 c-30 -42 -136 -118 -218 -157 -115 -53 -239
-75 -391 -69 -235 10 -405 81 -552 230 -150 152 -226 383 -199 605 42 340 279
586 626 651 88 16 253 12 351 -8z m-2971 -25 c99 -29 181 -74 245 -133 69 -64
104 -118 130 -201 75 -241 -14 -490 -216 -604 l-55 -30 17 -27 c10 -14 79
-114 154 -221 75 -107 140 -201 144 -207 6 -10 -30 -13 -167 -13 l-175 0 -143
205 -142 205 -164 0 -163 0 0 -205 0 -205 -160 0 -160 0 0 334 0 335 363 3
c357 3 363 3 415 27 30 14 69 43 92 68 89 102 73 287 -33 364 -76 55 -107 59
-489 59 l-348 0 0 136 0 135 398 -4 c340 -3 406 -6 457 -21z m1825 -111 l0
-135 -235 0 -235 0 0 -595 0 -595 -160 0 -160 0 0 595 0 595 -235 0 -235 0 0
135 0 135 630 0 630 0 0 -135z m-3646 17 c2 -4 0 -53 -6 -107 -17 -151 4 -180
140 -192 65 -5 70 -4 101 23 25 23 33 41 41 89 6 33 10 79 10 102 0 88 22 95
67 21 42 -69 57 -135 50 -209 -7 -66 -51 -160 -92 -198 -59 -55 -57 -37 -59
-620 l-1 -536 28 -57 c32 -64 80 -111 146 -142 46 -21 50 -21 1031 -21 1082 1
1013 -3 1071 60 38 41 132 85 198 92 74 7 140 -8 209 -50 74 -45 67 -67 -21
-67 -23 0 -69 -4 -102 -10 -48 -8 -66 -16 -89 -41 -27 -31 -28 -36 -23 -101
12 -136 41 -157 192 -140 54 6 103 8 107 6 27 -17 -32 -88 -105 -126 -33 -18
-59 -22 -127 -23 -117 0 -171 20 -240 91 -30 30 -75 65 -100 77 -45 21 -49 21
-1015 27 -968 5 -970 5 -1028 27 -170 64 -296 211 -326 378 -6 34 -12 270 -14
545 -5 557 0 531 -101 630 -71 69 -91 123 -91 240 1 68 5 94 23 127 38 73 109
132 126 105z"/>
</g>
</svg>
